<?xml version="1.0" encoding="utf-8"?><!-- Uploaded to: SVG Repo, www.svgrepo.com, Generator: SVG Repo Mixer Tools -->
<svg width="800px" height="800px" viewBox="0 0 512 512" xmlns="http://www.w3.org/2000/svg" xmlns:xlink="http://www.w3.org/1999/xlink" aria-hidden="true" role="img" class="iconify iconify--fxemoji" preserveAspectRatio="xMidYMid meet"><path fill="#F73737" d="M413.899 475.795H116.194V23.6c0-11.929 9.671-21.6 21.6-21.6h254.505c11.929 0 21.6 9.671 21.6 21.6v452.195z"></path><path fill="#C62424" d="M224.291 226.405h-56.172c-11.929 0-21.6-9.671-21.6-21.6V63.682c0-11.929 9.671-21.6 21.6-21.6h56.172c11.929 0 21.6 9.671 21.6 21.6v141.123c0 11.929-9.67 21.6-21.6 21.6zm159.283-21.6V63.682c0-11.929-9.671-21.6-21.6-21.6h-56.172c-11.929 0-21.6 9.671-21.6 21.6v141.123c0 11.929 9.671 21.6 21.6 21.6h56.172c11.929 0 21.6-9.671 21.6-21.6zM245.891 433.629v-96.407c0-11.929-9.671-21.6-21.6-21.6h-56.172c-11.929 0-21.6 9.671-21.6 21.6v96.407c0 11.929 9.671 21.6 21.6 21.6h56.172c11.93 0 21.6-9.671 21.6-21.6zm137.683 0v-96.407c0-11.929-9.671-21.6-21.6-21.6h-56.172c-11.929 0-21.6 9.671-21.6 21.6v96.407c0 11.929 9.671 21.6 21.6 21.6h56.172c11.929 0 21.6-9.671 21.6-21.6z"></path><circle fill="#FFB636" cx="360.861" cy="270.905" r="26.973"></circle><path fill="#BFBCAF" d="M403.499 507.27H126.594c-5.744 0-10.4-4.656-10.4-10.4v-21.074h297.705v21.074c0 5.743-4.657 10.4-10.4 10.4z"></path></svg>